<svg xmlns="http://www.w3.org/2000/svg" viewBox="0 0 480 130"><defs><style>.cls-1{fill:#666;}.cls-2{fill:#ba0c2f;}.cls-3{fill:none;}</style></defs><g id="Layer_2" data-name="Layer 2"><g id="Layer_2-2" data-name="Layer 2"><polygon class="cls-1" points="74.47 79.8 74.47 80.97 473.62 80.97 473.62 79.8 74.47 79.8 74.47 79.8"/><path class="cls-2" d="M20.27,49.23l4.46-4.45H39.16l4.45,4.45V78.91l-4.45,4.45H24.73l-4.46-4.45Zm34.58-4.84-11-11H20L9,44.48V83.67L20,94.74H43.85l11-10.95Z"/><path class="cls-1" d="M7.51,84.31V43.61l12-12h25l11.8,11.84V84.39L44.45,96.3h-25l-12-12ZM19,30.5,6.38,43.1V84.82L18.9,97.5H45L57.56,84.88V43.1L45.05,30.5Z"/><path class="cls-1" d="M26,47.63H37.87l2.82,2.82V77.74L38,80.46H26l-2.68-2.68V50.42ZM41.83,50,38.3,46.49H25.54L22.05,50V78.19l3.41,3.41h13l3.38-3.38V50Z"/><path class="cls-1" d="M90.29,52.3l-.37-2.59H85.17V66.47l2.53.38v1.59h-9V66.85l2.53-.38V49.71H76.5l-.38,2.59H74.44V47.52H92V52.3Z"/><path class="cls-1" d="M103.31,68.44v-1.5l2.34-.37V60.85H99.41v5.72l2.34.37v1.5H93.23v-1.5l2.43-.37V53.92l-2.43-.37v-1.5h8.52v1.5l-2.34.37v4.93h6.24V53.92l-2.34-.37v-1.5h8.52v1.5l-2.43.37V66.57l2.43.37v1.5Z"/><path class="cls-1" d="M127.79,68.44H113.64v-1.5l2.44-.37V53.92l-2.44-.37v-1.5h14.15v4.34h-1.6l-.37-2.34h-6v4.87h3.74l.38-2.09h1.4v6.05H124l-.38-2.09h-3.74v5.65h6l.37-2.34h1.6Z"/><path class="cls-1" d="M147.67,68.81c-6.49,0-9.33-3.87-9.33-10.89s2.87-10.77,9.36-10.77S157,51,157,58,154.16,68.81,147.67,68.81Zm0-19.38c-3.46,0-5.24,2.78-5.24,8.52s1.71,8.59,5.18,8.59,5.24-2.78,5.24-8.53-1.68-8.58-5.15-8.58Z"/><path class="cls-1" d="M168.8,68.44v-1.5l2.34-.37V60.85H164.9v5.72l2.34.37v1.5h-8.52v-1.5l2.44-.37V53.92l-2.44-.37v-1.5h8.52v1.5l-2.34.37v4.93h6.24V53.92l-2.34-.37v-1.5h8.53v1.5l-2.44.37V66.57l2.44.37v1.5Z"/><path class="cls-1" d="M179.35,68.44v-1.5l2.44-.37V53.92l-2.44-.37v-1.5H188v1.5l-2.43.37V66.57l2.43.37v1.5Z"/><path class="cls-1" d="M197.21,68.75c-5.53,0-7.93-3.09-7.93-8.52s2.44-8.46,8-8.46,7.93,3.09,7.93,8.52S202.74,68.75,197.21,68.75Zm0-14.83c-2.62,0-4,1.91-4,6.31s1.34,6.37,4,6.37,4.06-1.91,4.06-6.31-1.41-6.37-4-6.37Z"/><path class="cls-1" d="M222.25,68.81a18.26,18.26,0,0,1-6.53-1.25V63.1h1.78l.41,2.87a12.27,12.27,0,0,0,3.71.47c2.44,0,4.62-.81,4.62-3.46,0-2.41-1.68-2.75-3.74-3.44-3.28-1.09-6.75-2-6.75-6.52,0-3.65,2.28-5.87,7.06-5.87a18.23,18.23,0,0,1,6.24,1.18v4.19h-1.78l-.4-2.69a20.83,20.83,0,0,0-3.69-.4c-1.81,0-3.68.62-3.68,3,0,5.21,10.49,1.78,10.49,10.11C230,66.5,227.43,68.81,222.25,68.81Z"/><path class="cls-1" d="M244.78,56.58l-.37-2.53h-3.62V66.57l2.43.37v1.5h-8.61v-1.5l2.43-.37V54.05h-3.62l-.37,2.53h-1.6V52.05h14.93v4.53Z"/><path class="cls-1" d="M256.4,68.44v-1.5l2.34-.37-1.16-3h-6.24l-1.16,3,2.34.37v1.5h-7.14v-1.5l2.34-.37,5.62-14.52h3.59l5.62,14.52,2.34.37v1.5ZM254.46,55.2l-2.37,6.5h4.74Z"/><path class="cls-1" d="M277.22,56.58l-.38-2.53h-3.62V66.57l2.43.37v1.5H267v-1.5l2.43-.37V54.05h-3.62l-.37,2.53h-1.59V52.05h14.92v4.53Z"/><path class="cls-1" d="M294.38,68.44H280.24v-1.5l2.44-.37V53.92l-2.44-.37v-1.5h14.14v4.34h-1.59l-.37-2.34h-6v4.87h3.75l.37-2.09H292v6.05h-1.41l-.37-2.09h-3.75v5.65h6l.37-2.34h1.59Z"/><path class="cls-1" d="M322.89,49.49V60.17c0,3.59-.22,5.15-1.91,6.83-1.22,1.22-3.21,1.81-6.18,1.81s-5.12-.81-6.49-2.18c-1.78-1.78-1.6-4.43-1.6-6.74V49.49l-2.52-.37v-1.6h9v1.6l-2.53.37V61.73c0,3.43,1.9,4.81,4.84,4.81a4.82,4.82,0,0,0,3.68-1.22,5.08,5.08,0,0,0,1.15-3.59V49.49l-2.52-.37v-1.6h7.61v1.6Z"/><path class="cls-1" d="M342.58,53.92V68.44h-2.93l-8.34-11.71v9.84l2.44.37v1.5h-7.34v-1.5l2.44-.37V53.92l-2.44-.37v-1.5h5.72l8,11.17v-9.3l-2.44-.37v-1.5H345v1.5Z"/><path class="cls-1" d="M347,68.44v-1.5l2.44-.37V53.92L347,53.55v-1.5h8.62v1.5l-2.44.37V66.57l2.44.37v1.5Z"/><path class="cls-1" d="M373.86,53.92,368.4,68.44h-3.62l-5.47-14.52L357,53.55v-1.5h8.49v1.5l-2.34.37,4.15,11.24,4.12-11.24-2.34-.37v-1.5h7.15v1.5Z"/><path class="cls-1" d="M391.62,68.44H377.48v-1.5l2.44-.37V53.92l-2.44-.37v-1.5h14.14v4.34H390l-.37-2.34h-6v4.87h3.75l.37-2.09h1.41v6.05h-1.41l-.37-2.09h-3.75v5.65h6L390,64.1h1.59Z"/><path class="cls-1" d="M406,68.44l-1.53-3.75c-1-2.49-1.65-3.65-3.84-3.65h-.28v5.53l2.34.37v1.5h-8.52v-1.5l2.44-.37V53.92l-2.44-.37v-1.5h8.27c1.69,0,3.66.09,4.94,1.28a4.08,4.08,0,0,1,1.31,3.06,4.37,4.37,0,0,1-3,4.15c1.38,1,2.56,4.4,3.25,6l2.34.37v1.5Zm-1.74-13.89c-.63-.66-2-.6-2.82-.6h-1.09V59.2H401c1.06,0,2.53.12,3.31-.75a3.26,3.26,0,0,0-.06-3.9Z"/><path class="cls-1" d="M418.69,68.75a16.8,16.8,0,0,1-5.62-1V63.48h1.68l.41,2.68a12.12,12.12,0,0,0,3,.34c2,0,3.53-.65,3.53-2.43,0-1.25-.69-1.69-1.72-2-3-1-6.9-1.47-6.9-5.56,0-2.93,2-4.71,6.06-4.71a16.08,16.08,0,0,1,5.4,1v4h-1.69l-.4-2.55a15,15,0,0,0-2.91-.32c-1.53,0-2.87.53-2.87,2.13,0,3.65,8.65,1.21,8.65,7.71C425.34,66.94,423,68.75,418.69,68.75Z"/><path class="cls-1" d="M427.52,68.44v-1.5l2.44-.37V53.92l-2.44-.37v-1.5h8.62v1.5l-2.44.37V66.57l2.44.37v1.5Z"/><path class="cls-1" d="M451.25,56.58l-.38-2.53h-3.62V66.57l2.44.37v1.5h-8.62v-1.5l2.43-.37V54.05h-3.62l-.37,2.53h-1.59V52.05h14.92v4.53Z"/><path class="cls-1" d="M470.07,53.92l-4.78,7.4v5.25l2.44.37v1.5h-8.62v-1.5l2.44-.37V61.32l-4.84-7.4-2.34-.37v-1.5h8.68v1.5l-2.34.37,3.37,5.31,3.34-5.31-2.25-.37v-1.5h7.24v1.5Z"/><rect class="cls-3" width="480" height="130"/></g></g></svg>